<?xml version="1.0" standalone="no"?>
<!DOCTYPE svg PUBLIC "-//W3C//DTD SVG 20010904//EN"
 "http://www.w3.org/TR/2001/REC-SVG-20010904/DTD/svg10.dtd">
<svg version="1.0" xmlns="http://www.w3.org/2000/svg"
 width="1248.000000pt" height="1248.000000pt" viewBox="0 0 1248.000000 1248.000000"
 preserveAspectRatio="xMidYMid meet">
<metadata>
Created by potrace 1.14, written by Peter Selinger 2001-2017
</metadata>
<g transform="translate(0.000000,1248.000000) scale(0.100000,-0.100000)"
fill="#000000" stroke="none">
<path d="M8728 9915 c-2 -1 -41 -5 -88 -9 -117 -9 -146 -13 -300 -37 -36 -6
-78 -12 -95 -14 -16 -3 -50 -9 -75 -15 -25 -6 -54 -12 -65 -15 -128 -27 -419
-116 -490 -149 -270 -126 -365 -216 -379 -359 -7 -67 9 -97 88 -168 215 -194
258 -254 261 -364 1 -60 -15 -123 -120 -470 -20 -66 -38 -124 -39 -130 -2 -5
-6 -17 -9 -25 -4 -8 -9 -26 -11 -40 -3 -14 -19 -70 -37 -125 -17 -55 -32 -107
-34 -115 -2 -8 -4 -16 -5 -17 -2 -2 -3 -6 -4 -10 -2 -8 -30 -102 -72 -240 -14
-45 -27 -92 -29 -103 -2 -11 -6 -24 -9 -29 -3 -5 -12 -33 -20 -62 -8 -30 -31
-106 -50 -169 -20 -63 -38 -124 -41 -135 -3 -16 -75 -253 -85 -283 -9 -27 -63
-208 -70 -237 -5 -16 -24 -82 -43 -145 -20 -63 -61 -200 -92 -305 -31 -104
-75 -248 -97 -320 -38 -125 -54 -180 -63 -217 -2 -9 -9 -27 -16 -40 -7 -13
-11 -24 -10 -26 5 -5 -12 -68 -23 -81 -6 -8 -10 -17 -9 -20 3 -7 -13 -71 -26
-111 -12 -33 -52 -169 -55 -184 -7 -29 -19 -72 -25 -81 -3 -5 -7 -16 -8 -22
-2 -7 -4 -19 -6 -25 -1 -7 -6 -19 -10 -25 -5 -7 -5 -17 -2 -23 3 -5 2 -10 -3
-10 -5 0 -9 -6 -9 -12 0 -7 -12 -51 -27 -98 -15 -47 -29 -95 -32 -108 -3 -13
-12 -44 -21 -70 -8 -26 -16 -51 -17 -57 -1 -5 -12 -41 -24 -80 -65 -213 -161
-537 -193 -650 -13 -44 -28 -83 -33 -87 -6 -4 -8 -8 -4 -8 11 0 -33 -119 -73
-200 -46 -89 -127 -176 -234 -249 -42 -28 -80 -51 -84 -51 -5 0 -36 -20 -69
-45 -115 -87 -160 -205 -113 -296 27 -51 35 -59 91 -91 51 -30 101 -45 180
-56 71 -9 2466 -9 2545 1 33 4 67 9 75 12 8 2 28 6 43 9 199 34 339 206 266
325 -11 19 -64 78 -118 131 -85 85 -124 138 -139 190 -12 41 -4 249 12 305 10
33 19 67 21 75 13 44 50 165 100 325 31 99 58 194 61 210 3 17 9 35 14 40 4 6
11 26 16 45 10 43 9 42 17 60 6 15 39 126 43 145 1 6 13 46 27 90 14 44 38
121 52 170 15 50 31 99 35 110 4 11 20 63 35 115 15 52 31 104 36 115 5 11 10
29 12 40 2 11 14 54 27 95 14 41 25 77 25 80 4 17 50 165 69 220 111 318 190
460 316 571 62 54 180 135 180 123 0 -4 6 -2 13 3 38 31 136 44 242 32 39 -4
155 -91 155 -115 0 -8 4 -14 10 -14 5 0 15 -19 21 -42 25 -90 16 -156 -40
-308 -18 -47 -33 -89 -35 -95 -2 -5 -6 -17 -9 -25 -3 -8 -34 -89 -67 -180 -34
-91 -65 -174 -70 -185 -4 -11 -18 -47 -30 -80 -13 -33 -26 -69 -31 -80 -4 -11
-21 -56 -37 -100 -16 -44 -33 -89 -37 -100 -5 -11 -9 -22 -10 -25 -1 -3 -5
-14 -9 -25 -5 -11 -24 -63 -43 -115 -19 -52 -41 -108 -48 -125 -7 -16 -20 -52
-30 -80 -9 -27 -21 -59 -25 -70 -27 -65 -62 -160 -65 -176 -2 -10 -8 -26 -13
-36 -6 -10 -10 -20 -10 -23 0 -3 -11 -43 -26 -90 -27 -90 -55 -205 -62 -255
-2 -16 -6 -41 -9 -55 -12 -54 -17 -140 -17 -250 1 -306 113 -556 343 -765 68
-62 243 -170 309 -190 14 -4 43 -16 65 -25 102 -45 291 -83 480 -97 285 -20
575 6 810 72 50 15 95 27 100 28 6 2 20 8 32 15 12 7 27 12 33 12 7 0 62 25
123 56 330 165 536 376 642 659 13 33 26 77 29 99 4 21 9 42 12 47 3 5 6 55 6
112 2 135 -24 216 -77 244 -29 16 -49 2 -133 -88 -79 -83 -136 -112 -209 -103
-111 13 -138 127 -75 314 16 47 29 88 30 93 0 4 15 52 32 107 17 55 31 102 31
105 1 2 21 69 46 147 42 137 48 156 57 196 2 9 10 31 16 47 6 17 13 37 15 45
4 15 23 78 70 230 14 47 27 92 29 100 7 24 124 408 145 475 11 33 32 101 46
150 15 50 36 117 46 150 11 33 21 71 24 83 2 12 6 26 9 30 3 5 8 24 11 43 3
19 10 52 15 74 22 103 33 222 33 360 -1 93 -7 197 -14 215 -1 3 -1 8 0 12 1 6
-7 48 -23 118 -14 63 -30 116 -37 124 -5 6 -9 17 -9 25 0 28 -100 216 -153
286 -117 158 -295 304 -458 378 -76 35 -194 76 -239 83 -14 3 -38 7 -55 11
-166 34 -489 34 -665 -2 -71 -14 -97 -18 -117 -19 -13 -1 -23 -4 -23 -9 0 -4
-3 -6 -7 -5 -19 5 -186 -46 -293 -89 -70 -27 -172 -79 -231 -115 -20 -13 -55
-34 -78 -47 -22 -14 -41 -28 -41 -33 0 -4 -6 -8 -14 -8 -8 0 -16 -3 -18 -8 -1
-4 -25 -25 -53 -47 -72 -57 -280 -268 -350 -355 -63 -79 -85 -104 -85 -97 0 2
6 23 14 48 23 69 77 246 81 266 2 10 15 54 29 98 59 192 88 291 91 305 2 8 4
15 5 15 1 0 3 7 5 15 2 8 36 119 75 245 39 127 72 237 74 245 2 8 12 42 22 75
10 33 19 62 19 65 1 3 4 12 8 20 5 12 21 67 33 115 1 6 14 48 29 95 15 47 28
92 30 100 2 8 4 15 5 15 5 0 39 169 46 230 10 88 10 238 0 253 -5 6 -6 12 -3
12 7 0 -10 74 -35 153 -12 37 -25 67 -30 67 -4 0 -8 9 -8 20 0 11 -4 20 -10
20 -5 0 -10 5 -10 11 0 6 -21 37 -46 69 -84 108 -216 202 -344 245 -3 1 -12 4
-20 8 -24 9 -83 26 -115 32 -27 6 -68 13 -169 31 -32 6 -512 14 -518 9z"/>
<path d="M3406 7893 c-1 -1 -45 -5 -97 -8 -51 -3 -107 -7 -124 -9 -83 -10
-154 -18 -185 -23 -19 -2 -48 -6 -65 -8 -16 -2 -31 -4 -32 -5 -4 -3 -11 -5
-68 -15 -27 -4 -54 -9 -60 -11 -5 -1 -21 -4 -35 -7 -22 -5 -91 -20 -140 -32
-141 -34 -431 -133 -555 -190 -16 -7 -55 -24 -85 -38 -98 -43 -195 -92 -198
-99 -2 -5 -9 -8 -16 -8 -6 0 -72 -36 -146 -80 -74 -44 -136 -80 -138 -80 -1 0
-15 -11 -30 -25 -15 -14 -31 -25 -35 -25 -5 0 -14 -6 -21 -12 -8 -7 -24 -20
-36 -28 -38 -25 -208 -160 -258 -204 -142 -127 -324 -321 -432 -460 -30 -39
-58 -72 -62 -74 -5 -2 -8 -10 -8 -18 0 -8 -4 -14 -8 -14 -5 0 -15 -12 -23 -27
-8 -16 -19 -34 -26 -40 -6 -7 -28 -41 -49 -75 -20 -35 -44 -71 -52 -80 -8 -10
-11 -18 -6 -18 5 0 4 -4 -2 -8 -15 -9 -148 -272 -169 -332 -1 -3 -9 -21 -17
-40 -35 -80 -90 -240 -123 -360 -25 -91 -35 -132 -51 -229 -3 -18 -7 -42 -9
-51 -2 -10 -6 -40 -10 -67 -4 -26 -9 -59 -11 -73 -26 -140 -25 -541 0 -690 3
-14 7 -41 10 -60 3 -19 10 -52 15 -72 5 -21 7 -38 4 -38 -3 0 0 -6 6 -14 6 -8
11 -18 9 -22 -9 -30 148 -413 173 -422 5 -2 9 -12 9 -22 0 -10 4 -20 8 -22 5
-1 26 -30 47 -63 22 -33 42 -62 45 -65 3 -3 23 -27 44 -55 47 -60 204 -217
266 -266 25 -19 72 -54 106 -77 57 -38 78 -50 194 -114 139 -76 416 -173 611
-214 13 -2 44 -9 69 -14 25 -5 56 -12 69 -14 12 -3 44 -8 70 -11 25 -4 57 -9
71 -11 25 -4 40 -6 160 -19 342 -38 779 -37 1070 1 30 4 64 8 75 9 20 2 71 10
130 21 17 3 42 7 56 9 14 2 43 8 65 14 21 6 93 24 159 40 112 28 254 70 300
90 11 4 70 27 130 51 104 40 280 123 390 185 28 15 64 35 80 43 17 9 36 22 43
29 7 7 19 13 27 13 7 0 15 3 17 8 2 4 41 32 87 62 46 30 89 59 95 65 6 6 36
28 66 50 30 22 57 42 60 45 3 3 32 27 65 55 80 66 135 117 214 196 58 58 87
90 196 211 13 15 57 72 97 125 40 54 76 100 81 101 4 2 7 9 7 16 0 7 9 23 20
36 11 13 20 27 20 31 0 4 6 14 13 21 27 28 219 381 222 408 1 3 8 21 17 40 31
67 58 133 58 142 0 6 6 24 14 41 24 53 98 292 111 357 2 8 8 33 14 55 5 22 13
54 15 70 3 17 8 41 11 55 2 13 7 40 10 60 3 20 8 47 11 60 5 24 8 48 21 170 8
78 8 454 -1 520 -12 93 -45 247 -72 333 -25 79 -35 104 -84 212 -13 28 -23 53
-22 57 1 3 -5 12 -13 18 -8 7 -15 19 -15 26 0 8 -4 14 -10 14 -5 0 -10 5 -10
11 0 14 -95 158 -141 214 -49 60 -238 247 -284 280 -22 17 -42 32 -45 35 -3 3
-32 23 -65 45 -33 22 -63 45 -67 50 -4 6 -8 6 -8 1 0 -5 -8 -2 -17 6 -22 19
-185 102 -244 124 -87 32 -274 96 -299 101 -34 7 -39 8 -88 22 -24 7 -56 14
-72 16 -16 2 -37 6 -47 9 -21 6 -75 16 -118 22 -16 2 -46 6 -65 10 -19 3 -54
7 -77 8 -24 0 -43 4 -43 7 0 3 -21 7 -47 8 -27 1 -70 4 -98 7 -144 13 -610 26
-619 17z m247 -879 c112 -58 148 -200 123 -489 -3 -44 -8 -91 -11 -105 -3 -14
-7 -41 -10 -60 -5 -38 -31 -180 -41 -220 -3 -14 -7 -34 -9 -45 -1 -11 -8 -40
-15 -65 -7 -25 -13 -52 -15 -60 -2 -8 -13 -53 -25 -100 -12 -47 -23 -92 -25
-100 -2 -8 -13 -46 -25 -85 -11 -38 -22 -79 -24 -90 -2 -11 -9 -31 -14 -45 -9
-19 -39 -118 -47 -150 -1 -6 -7 -26 -52 -169 -19 -62 -36 -119 -38 -125 -1 -6
-5 -18 -8 -26 -3 -8 -40 -121 -83 -250 -43 -129 -84 -251 -93 -270 -8 -19 -15
-37 -16 -40 -5 -25 -35 -106 -65 -175 -7 -16 -15 -34 -16 -40 -16 -52 -30 -85
-36 -85 -5 0 -8 -7 -8 -15 0 -8 -18 -52 -40 -99 -22 -46 -40 -89 -40 -94 0 -6
-3 -12 -7 -14 -5 -1 -21 -28 -37 -58 -94 -179 -217 -324 -311 -369 -94 -45
-231 -28 -295 37 -72 72 -93 271 -56 522 2 14 7 50 11 80 8 59 13 85 15 85 1
0 3 12 5 27 2 16 11 61 20 100 8 40 17 82 19 93 2 11 13 56 25 100 11 44 22
91 25 105 8 42 76 288 118 425 21 72 41 138 43 148 2 10 16 57 31 105 16 48
29 92 30 97 1 6 9 29 18 53 8 23 15 43 15 45 0 1 2 9 5 17 3 8 20 62 39 120
199 610 374 975 555 1158 83 83 118 112 137 112 8 0 15 5 15 12 0 6 3 9 6 5 3
-3 20 1 37 8 38 16 129 10 170 -11z"/>
</g>
</svg>
